<mxfile host="app.diagrams.net" modified="2022-08-05T19:02:51.585Z" agent="5.0 (Macintosh; Intel Mac OS X 10_15_7) AppleWebKit/537.36 (KHTML, like Gecko) Chrome/103.0.0.0 Safari/537.36" etag="LVcvfJ9AOSneDmNPD--i" version="20.2.3" type="github">
  <diagram id="Bz5ATsaenuPODiu2Aiwq" name="페이지-1">
    <mxGraphModel dx="946" dy="589" grid="1" gridSize="10" guides="1" tooltips="1" connect="1" arrows="1" fold="1" page="1" pageScale="1" pageWidth="827" pageHeight="1169" math="0" shadow="0">
      <root>
        <mxCell id="0" />
        <mxCell id="1" parent="0" />
        <mxCell id="K9cWArxIHYqjQkeE0rk5-1" value="이용자" style="shape=umlActor;verticalLabelPosition=bottom;verticalAlign=top;html=1;" vertex="1" parent="1">
          <mxGeometry x="30" y="180" width="30" height="60" as="geometry" />
        </mxCell>
        <mxCell id="K9cWArxIHYqjQkeE0rk5-2" value="게시판 서비스" style="shape=umlFrame;whiteSpace=wrap;html=1;width=86;height=30;" vertex="1" parent="1">
          <mxGeometry x="90" y="30" width="660" height="580" as="geometry" />
        </mxCell>
        <mxCell id="K9cWArxIHYqjQkeE0rk5-14" style="rounded=0;orthogonalLoop=1;jettySize=auto;html=1;exitX=0;exitY=0.5;exitDx=0;exitDy=0;entryX=1;entryY=0.3333333333333333;entryDx=0;entryDy=0;entryPerimeter=0;endArrow=none;endFill=0;" edge="1" parent="1" source="K9cWArxIHYqjQkeE0rk5-3" target="K9cWArxIHYqjQkeE0rk5-1">
          <mxGeometry relative="1" as="geometry" />
        </mxCell>
        <mxCell id="K9cWArxIHYqjQkeE0rk5-3" value="회원 가입" style="rounded=1;whiteSpace=wrap;html=1;arcSize=40;fontColor=#000000;fillColor=#ffffc0;strokeColor=#ff0000;" vertex="1" parent="1">
          <mxGeometry x="130" y="170" width="120" height="40" as="geometry" />
        </mxCell>
        <mxCell id="K9cWArxIHYqjQkeE0rk5-17" style="edgeStyle=none;rounded=0;orthogonalLoop=1;jettySize=auto;html=1;exitX=0;exitY=0.5;exitDx=0;exitDy=0;endArrow=none;endFill=0;" edge="1" parent="1" source="K9cWArxIHYqjQkeE0rk5-5">
          <mxGeometry relative="1" as="geometry">
            <mxPoint x="60" y="200" as="targetPoint" />
          </mxGeometry>
        </mxCell>
        <mxCell id="K9cWArxIHYqjQkeE0rk5-22" value="&amp;lt;&amp;lt;include&amp;gt;&amp;gt;" style="edgeStyle=none;rounded=0;orthogonalLoop=1;jettySize=auto;html=1;exitX=1;exitY=0;exitDx=0;exitDy=0;entryX=0.5;entryY=1;entryDx=0;entryDy=0;dashed=1;endArrow=classic;endFill=1;" edge="1" parent="1" source="K9cWArxIHYqjQkeE0rk5-5" target="K9cWArxIHYqjQkeE0rk5-7">
          <mxGeometry relative="1" as="geometry" />
        </mxCell>
        <mxCell id="K9cWArxIHYqjQkeE0rk5-5" value="게시판 보기" style="rounded=1;whiteSpace=wrap;html=1;arcSize=40;fontColor=#000000;fillColor=#ffffc0;strokeColor=#ff0000;" vertex="1" parent="1">
          <mxGeometry x="130" y="290" width="120" height="40" as="geometry" />
        </mxCell>
        <mxCell id="K9cWArxIHYqjQkeE0rk5-18" style="edgeStyle=none;rounded=0;orthogonalLoop=1;jettySize=auto;html=1;exitX=0;exitY=0.5;exitDx=0;exitDy=0;endArrow=none;endFill=0;" edge="1" parent="1" source="K9cWArxIHYqjQkeE0rk5-6">
          <mxGeometry relative="1" as="geometry">
            <mxPoint x="60" y="200" as="targetPoint" />
          </mxGeometry>
        </mxCell>
        <mxCell id="K9cWArxIHYqjQkeE0rk5-23" value="&amp;lt;&amp;lt;include&amp;gt;&amp;gt;" style="edgeStyle=none;rounded=0;orthogonalLoop=1;jettySize=auto;html=1;exitX=1;exitY=0;exitDx=0;exitDy=0;dashed=1;endArrow=classic;endFill=1;" edge="1" parent="1" source="K9cWArxIHYqjQkeE0rk5-6">
          <mxGeometry relative="1" as="geometry">
            <mxPoint x="390" y="90" as="targetPoint" />
          </mxGeometry>
        </mxCell>
        <mxCell id="K9cWArxIHYqjQkeE0rk5-6" value="게시글 보기" style="rounded=1;whiteSpace=wrap;html=1;arcSize=40;fontColor=#000000;fillColor=#ffffc0;strokeColor=#ff0000;" vertex="1" parent="1">
          <mxGeometry x="140" y="440" width="120" height="40" as="geometry" />
        </mxCell>
        <mxCell id="K9cWArxIHYqjQkeE0rk5-16" style="edgeStyle=none;rounded=0;orthogonalLoop=1;jettySize=auto;html=1;exitX=0;exitY=0.5;exitDx=0;exitDy=0;entryX=1;entryY=0.3333333333333333;entryDx=0;entryDy=0;entryPerimeter=0;endArrow=none;endFill=0;" edge="1" parent="1" source="K9cWArxIHYqjQkeE0rk5-7" target="K9cWArxIHYqjQkeE0rk5-1">
          <mxGeometry relative="1" as="geometry" />
        </mxCell>
        <mxCell id="K9cWArxIHYqjQkeE0rk5-19" value="&amp;lt;&amp;lt;include&amp;gt;&amp;gt;" style="edgeStyle=none;rounded=0;orthogonalLoop=1;jettySize=auto;html=1;exitX=1;exitY=0.5;exitDx=0;exitDy=0;entryX=0;entryY=0.5;entryDx=0;entryDy=0;endArrow=classic;endFill=1;dashed=1;" edge="1" parent="1" source="K9cWArxIHYqjQkeE0rk5-7" target="K9cWArxIHYqjQkeE0rk5-8">
          <mxGeometry relative="1" as="geometry" />
        </mxCell>
        <mxCell id="K9cWArxIHYqjQkeE0rk5-7" value="회원 로그인" style="rounded=1;whiteSpace=wrap;html=1;arcSize=40;fontColor=#000000;fillColor=#ffffc0;strokeColor=#ff0000;" vertex="1" parent="1">
          <mxGeometry x="330" y="50" width="120" height="40" as="geometry" />
        </mxCell>
        <mxCell id="K9cWArxIHYqjQkeE0rk5-8" value="인증" style="rounded=1;whiteSpace=wrap;html=1;arcSize=40;fontColor=#000000;fillColor=#ffffc0;strokeColor=#ff0000;" vertex="1" parent="1">
          <mxGeometry x="600" y="50" width="120" height="40" as="geometry" />
        </mxCell>
        <mxCell id="K9cWArxIHYqjQkeE0rk5-20" value="&amp;lt;&amp;lt;extend&amp;gt;&amp;gt;" style="edgeStyle=none;rounded=0;orthogonalLoop=1;jettySize=auto;html=1;exitX=0;exitY=0.5;exitDx=0;exitDy=0;endArrow=classic;endFill=1;dashed=1;" edge="1" parent="1" source="K9cWArxIHYqjQkeE0rk5-9">
          <mxGeometry relative="1" as="geometry">
            <mxPoint x="450" y="70" as="targetPoint" />
          </mxGeometry>
        </mxCell>
        <mxCell id="K9cWArxIHYqjQkeE0rk5-9" value="로그인 실패" style="rounded=1;whiteSpace=wrap;html=1;arcSize=40;fontColor=#000000;fillColor=#ffffc0;strokeColor=#ff0000;" vertex="1" parent="1">
          <mxGeometry x="600" y="120" width="120" height="40" as="geometry" />
        </mxCell>
        <mxCell id="K9cWArxIHYqjQkeE0rk5-24" value="&amp;lt;&amp;lt;extend&amp;gt;&amp;gt;" style="edgeStyle=none;rounded=0;orthogonalLoop=1;jettySize=auto;html=1;exitX=0;exitY=0.5;exitDx=0;exitDy=0;entryX=1;entryY=0.5;entryDx=0;entryDy=0;dashed=1;endArrow=classic;endFill=1;" edge="1" parent="1" source="K9cWArxIHYqjQkeE0rk5-10" target="K9cWArxIHYqjQkeE0rk5-5">
          <mxGeometry relative="1" as="geometry" />
        </mxCell>
        <mxCell id="K9cWArxIHYqjQkeE0rk5-10" value="게시판 정렬하기" style="rounded=1;whiteSpace=wrap;html=1;arcSize=40;fontColor=#000000;fillColor=#ffffc0;strokeColor=#ff0000;" vertex="1" parent="1">
          <mxGeometry x="540" y="240" width="120" height="40" as="geometry" />
        </mxCell>
        <mxCell id="K9cWArxIHYqjQkeE0rk5-25" value="&amp;lt;&amp;lt;extend&amp;gt;&amp;gt;" style="edgeStyle=none;rounded=0;orthogonalLoop=1;jettySize=auto;html=1;exitX=0;exitY=0.5;exitDx=0;exitDy=0;dashed=1;endArrow=classic;endFill=1;" edge="1" parent="1" source="K9cWArxIHYqjQkeE0rk5-11">
          <mxGeometry relative="1" as="geometry">
            <mxPoint x="260" y="310" as="targetPoint" />
          </mxGeometry>
        </mxCell>
        <mxCell id="K9cWArxIHYqjQkeE0rk5-11" value="게시판 검색" style="rounded=1;whiteSpace=wrap;html=1;arcSize=40;fontColor=#000000;fillColor=#ffffc0;strokeColor=#ff0000;" vertex="1" parent="1">
          <mxGeometry x="540" y="310" width="120" height="40" as="geometry" />
        </mxCell>
        <mxCell id="K9cWArxIHYqjQkeE0rk5-26" value="&amp;lt;&amp;lt;extend&amp;gt;&amp;gt;" style="edgeStyle=none;rounded=0;orthogonalLoop=1;jettySize=auto;html=1;exitX=0;exitY=0.5;exitDx=0;exitDy=0;entryX=1;entryY=0.5;entryDx=0;entryDy=0;dashed=1;endArrow=classic;endFill=1;" edge="1" parent="1" source="K9cWArxIHYqjQkeE0rk5-12" target="K9cWArxIHYqjQkeE0rk5-6">
          <mxGeometry relative="1" as="geometry" />
        </mxCell>
        <mxCell id="K9cWArxIHYqjQkeE0rk5-12" value="게시글 쓰기, 수정, 삭제" style="rounded=1;whiteSpace=wrap;html=1;arcSize=40;fontColor=#000000;fillColor=#ffffc0;strokeColor=#ff0000;" vertex="1" parent="1">
          <mxGeometry x="540" y="420" width="120" height="40" as="geometry" />
        </mxCell>
        <mxCell id="K9cWArxIHYqjQkeE0rk5-27" value="&amp;lt;&amp;lt;extend&amp;gt;&amp;gt;" style="edgeStyle=none;rounded=0;orthogonalLoop=1;jettySize=auto;html=1;exitX=0;exitY=0.5;exitDx=0;exitDy=0;dashed=1;endArrow=classic;endFill=1;" edge="1" parent="1" source="K9cWArxIHYqjQkeE0rk5-13">
          <mxGeometry relative="1" as="geometry">
            <mxPoint x="260" y="460" as="targetPoint" />
          </mxGeometry>
        </mxCell>
        <mxCell id="K9cWArxIHYqjQkeE0rk5-13" value="댓글 보기, 쓰기, 수정, 삭제" style="rounded=1;whiteSpace=wrap;html=1;arcSize=40;fontColor=#000000;fillColor=#ffffc0;strokeColor=#ff0000;" vertex="1" parent="1">
          <mxGeometry x="530" y="490" width="140" height="40" as="geometry" />
        </mxCell>
      </root>
    </mxGraphModel>
  </diagram>
</mxfile>
